<svg width="37" height="36" viewBox="0 0 37 36" fill="none" xmlns="http://www.w3.org/2000/svg">
<path d="M15.5 13.5C15.5 13.1022 15.658 12.7206 15.9393 12.4393C16.2206 12.158 16.6022 12 17 12C17.3978 12 17.7794 12.158 18.0607 12.4393C18.342 12.7206 18.5 13.1022 18.5 13.5V20.205L20.315 20.4L27.725 23.685C28.52 24.045 29 24.84 29 25.71V32.25C28.955 33.48 27.98 34.455 26.75 34.5H17C16.43 34.5 15.89 34.275 15.5 33.855L8.15 27.555L9.26 26.4C9.545 26.085 9.95 25.92 10.37 25.92H10.7L15.5 28.5V13.5ZM17 7.5C18.5913 7.5 20.1174 8.13214 21.2426 9.25736C22.3679 10.3826 23 11.9087 23 13.5C23 15.75 21.8 17.655 20 18.69V16.86C20.915 16.035 21.5 14.835 21.5 13.5C21.5 12.3065 21.0259 11.1619 20.182 10.318C19.3381 9.47411 18.1935 9 17 9C15.8065 9 14.6619 9.47411 13.818 10.318C12.9741 11.1619 12.5 12.3065 12.5 13.5C12.5 14.835 13.085 16.035 14 16.86V18.69C12.2 17.655 11 15.75 11 13.5C11 11.9087 11.6321 10.3826 12.7574 9.25736C13.8826 8.13214 15.4087 7.5 17 7.5ZM17 4.5C19.3869 4.5 21.6761 5.44821 23.364 7.13604C25.0518 8.82387 26 11.1131 26 13.5C26 16.05 24.935 18.345 23.24 19.995L21.74 19.32C22.6019 18.6145 23.2966 17.7265 23.7739 16.7201C24.2511 15.7137 24.4991 14.6139 24.5 13.5C24.5 11.5109 23.7098 9.60322 22.3033 8.1967C20.8968 6.79018 18.9891 6 17 6C15.0109 6 13.1032 6.79018 11.6967 8.1967C10.2902 9.60322 9.5 11.5109 9.5 13.5C9.5 16.575 11.345 19.215 14 20.37V21.99C10.505 20.745 8 17.415 8 13.5C8 11.1131 8.94821 8.82387 10.636 7.13604C12.3239 5.44821 14.6131 4.5 17 4.5Z" fill="#ED3630"/>
</svg>
